<mxfile host="app.diagrams.net" modified="2023-12-31T14:08:59.595Z" agent="Mozilla/5.0 (Windows NT 10.0; Win64; x64) AppleWebKit/537.36 (KHTML, like Gecko) Chrome/120.0.0.0 Safari/537.36" etag="wBaEoeK16VFAi5HtQgc1" version="22.1.15" type="github">
  <diagram name="Page-1" id="1zsd9Qe-w-mNB6tBP4gk">
    <mxGraphModel dx="4207" dy="4542" grid="1" gridSize="10" guides="1" tooltips="1" connect="1" arrows="1" fold="1" page="0" pageScale="1" pageWidth="827" pageHeight="1169" math="0" shadow="0">
      <root>
        <mxCell id="0" />
        <mxCell id="1" parent="0" />
        <mxCell id="kUKV6NQQhQ4EJnf8gUJz-1" value="Utilisateur&lt;br&gt;" style="shape=umlActor;verticalLabelPosition=bottom;verticalAlign=top;html=1;fontSize=16;fillColor=#fff2cc;strokeColor=#d6b656;" parent="1" vertex="1">
          <mxGeometry x="-1480" y="-2630" width="30" height="60" as="geometry" />
        </mxCell>
        <mxCell id="kUKV6NQQhQ4EJnf8gUJz-37" value="Application Learn@Home Page connexion" style="text;strokeColor=default;fillColor=#FF6666;align=center;verticalAlign=top;rounded=0;fontSize=18;labelBackgroundColor=none;labelBorderColor=none;spacingTop=0;whiteSpace=wrap;html=1;fontFamily=Times New Roman;spacing=0;spacingRight=2;fontColor=#FFFFFF;" parent="1" vertex="1">
          <mxGeometry x="-1480" y="-3000" width="880" height="30" as="geometry" />
        </mxCell>
        <mxCell id="kUKV6NQQhQ4EJnf8gUJz-224" style="edgeStyle=none;curved=1;rounded=0;orthogonalLoop=1;jettySize=auto;html=1;fontSize=12;startSize=8;endSize=8;exitX=0.897;exitY=0.139;exitDx=0;exitDy=0;exitPerimeter=0;fillColor=#dae8fc;strokeColor=#007FFF;" parent="1" source="kUKV6NQQhQ4EJnf8gUJz-39" edge="1">
          <mxGeometry relative="1" as="geometry">
            <mxPoint x="-1120" y="-2867.06" as="targetPoint" />
            <mxPoint x="-1209.891473578087" y="-2839.997147567174" as="sourcePoint" />
          </mxGeometry>
        </mxCell>
        <mxCell id="kUKV6NQQhQ4EJnf8gUJz-226" value="&lt;font color=&quot;#007fff&quot;&gt;Include&lt;/font&gt;" style="edgeLabel;html=1;align=center;verticalAlign=middle;resizable=0;points=[];fontSize=16;" parent="kUKV6NQQhQ4EJnf8gUJz-224" vertex="1" connectable="0">
          <mxGeometry x="-0.3113" y="-3" relative="1" as="geometry">
            <mxPoint as="offset" />
          </mxGeometry>
        </mxCell>
        <mxCell id="kUKV6NQQhQ4EJnf8gUJz-227" style="edgeStyle=none;curved=1;rounded=0;orthogonalLoop=1;jettySize=auto;html=1;fontSize=12;startSize=8;endSize=8;fillColor=#dae8fc;strokeColor=#007FFF;dashed=1;" parent="1" source="kUKV6NQQhQ4EJnf8gUJz-39" edge="1">
          <mxGeometry relative="1" as="geometry">
            <mxPoint x="-1120" y="-2730" as="targetPoint" />
          </mxGeometry>
        </mxCell>
        <mxCell id="kUKV6NQQhQ4EJnf8gUJz-229" value="&lt;font color=&quot;#007fff&quot;&gt;Inlcude&lt;/font&gt;" style="edgeLabel;html=1;align=center;verticalAlign=middle;resizable=0;points=[];fontSize=16;" parent="kUKV6NQQhQ4EJnf8gUJz-227" vertex="1" connectable="0">
          <mxGeometry x="-0.1383" y="-2" relative="1" as="geometry">
            <mxPoint as="offset" />
          </mxGeometry>
        </mxCell>
        <mxCell id="kUKV6NQQhQ4EJnf8gUJz-39" value="Procédure de Connexion" style="ellipse;whiteSpace=wrap;html=1;fontSize=16;fillColor=#e1d5e7;strokeColor=#9673a6;" parent="1" vertex="1">
          <mxGeometry x="-1340" y="-2840" width="140" height="70" as="geometry" />
        </mxCell>
        <mxCell id="kUKV6NQQhQ4EJnf8gUJz-74" value="Procédure de récupération de mot de passe" style="ellipse;whiteSpace=wrap;html=1;fontSize=16;fillColor=#e1d5e7;strokeColor=#9673a6;" parent="1" vertex="1">
          <mxGeometry x="-1350" y="-2690" width="140" height="70" as="geometry" />
        </mxCell>
        <mxCell id="kUKV6NQQhQ4EJnf8gUJz-86" value="Procédure de Création de compte" style="ellipse;whiteSpace=wrap;html=1;fontSize=16;fillColor=#e1d5e7;strokeColor=#9673a6;" parent="1" vertex="1">
          <mxGeometry x="-1350" y="-2570" width="140" height="70" as="geometry" />
        </mxCell>
        <mxCell id="kUKV6NQQhQ4EJnf8gUJz-95" value="Application Learn@Home Page Tableau de bord" style="text;strokeColor=default;fillColor=#FF6666;align=center;verticalAlign=top;rounded=0;fontSize=18;labelBackgroundColor=none;labelBorderColor=none;spacingTop=0;whiteSpace=wrap;html=1;fontFamily=Times New Roman;spacing=0;spacingRight=2;fontColor=#FFFFFF;" parent="1" vertex="1">
          <mxGeometry x="-560" y="-3000" width="880" height="30" as="geometry" />
        </mxCell>
        <mxCell id="kUKV6NQQhQ4EJnf8gUJz-96" value="Utilisateur&lt;br&gt;" style="shape=umlActor;verticalLabelPosition=bottom;verticalAlign=top;html=1;fontSize=16;fillColor=#fff2cc;strokeColor=#d6b656;" parent="1" vertex="1">
          <mxGeometry x="-360" y="-2790" width="30" height="60" as="geometry" />
        </mxCell>
        <mxCell id="kUKV6NQQhQ4EJnf8gUJz-97" value="Récapitulatif des tâches&amp;nbsp; (To-Do-List)" style="ellipse;whiteSpace=wrap;html=1;fontSize=16;fillColor=#e1d5e7;strokeColor=#9673a6;" parent="1" vertex="1">
          <mxGeometry x="-220" y="-2920" width="140" height="70" as="geometry" />
        </mxCell>
        <mxCell id="kUKV6NQQhQ4EJnf8gUJz-98" value="Liste des prochains events" style="ellipse;whiteSpace=wrap;html=1;fontSize=16;fillColor=#e1d5e7;strokeColor=#9673a6;" parent="1" vertex="1">
          <mxGeometry x="-210" y="-2780" width="140" height="70" as="geometry" />
        </mxCell>
        <mxCell id="kUKV6NQQhQ4EJnf8gUJz-99" value="Compteur de messages non lus" style="ellipse;whiteSpace=wrap;html=1;fontSize=16;fillColor=#e1d5e7;strokeColor=#9673a6;" parent="1" vertex="1">
          <mxGeometry x="-220" y="-2660" width="140" height="70" as="geometry" />
        </mxCell>
        <mxCell id="kUKV6NQQhQ4EJnf8gUJz-116" value="" style="endArrow=open;endFill=1;endSize=12;html=1;rounded=0;fontSize=12;curved=1;fillColor=#dae8fc;strokeColor=#007FFF;" parent="1" edge="1">
          <mxGeometry width="160" relative="1" as="geometry">
            <mxPoint x="-1410" y="-2650" as="sourcePoint" />
            <mxPoint x="-1340" y="-2810" as="targetPoint" />
          </mxGeometry>
        </mxCell>
        <mxCell id="kUKV6NQQhQ4EJnf8gUJz-118" value="" style="endArrow=open;endFill=1;endSize=12;html=1;rounded=0;fontSize=12;curved=1;fillColor=#dae8fc;strokeColor=#007FFF;" parent="1" edge="1">
          <mxGeometry width="160" relative="1" as="geometry">
            <mxPoint x="-320" y="-2750" as="sourcePoint" />
            <mxPoint x="-210" y="-2750" as="targetPoint" />
          </mxGeometry>
        </mxCell>
        <mxCell id="kUKV6NQQhQ4EJnf8gUJz-119" value="" style="endArrow=open;endFill=1;endSize=12;html=1;rounded=0;fontSize=12;curved=1;fillColor=#dae8fc;strokeColor=#007FFF;" parent="1" edge="1">
          <mxGeometry width="160" relative="1" as="geometry">
            <mxPoint x="-320" y="-2750" as="sourcePoint" />
            <mxPoint x="-220" y="-2630" as="targetPoint" />
          </mxGeometry>
        </mxCell>
        <mxCell id="kUKV6NQQhQ4EJnf8gUJz-180" value="Application Learn@Home Page Interface Chat" style="text;strokeColor=default;fillColor=#FF6666;align=center;verticalAlign=top;rounded=0;fontSize=18;labelBackgroundColor=none;labelBorderColor=none;spacingTop=0;whiteSpace=wrap;html=1;fontFamily=Times New Roman;spacing=0;spacingRight=2;fontColor=#FFFFFF;" parent="1" vertex="1">
          <mxGeometry x="-1480" y="-2400" width="880" height="30" as="geometry" />
        </mxCell>
        <mxCell id="kUKV6NQQhQ4EJnf8gUJz-181" value="Elève / Bénévole" style="shape=umlActor;verticalLabelPosition=bottom;verticalAlign=top;html=1;fontSize=16;fillColor=#fff2cc;strokeColor=#d6b656;" parent="1" vertex="1">
          <mxGeometry x="-1480" y="-2230" width="30" height="60" as="geometry" />
        </mxCell>
        <mxCell id="kUKV6NQQhQ4EJnf8gUJz-184" value="" style="endArrow=open;endFill=1;endSize=12;html=1;rounded=0;fontSize=12;curved=1;strokeColor=#007FFF;" parent="1" edge="1">
          <mxGeometry width="160" relative="1" as="geometry">
            <mxPoint x="-1410" y="-2180" as="sourcePoint" />
            <mxPoint x="-1300" y="-2300" as="targetPoint" />
          </mxGeometry>
        </mxCell>
        <mxCell id="kUKV6NQQhQ4EJnf8gUJz-185" value="" style="endArrow=open;endFill=1;endSize=12;html=1;rounded=0;fontSize=12;curved=1;strokeColor=#007FFF;" parent="1" edge="1">
          <mxGeometry width="160" relative="1" as="geometry">
            <mxPoint x="-1410" y="-2180" as="sourcePoint" />
            <mxPoint x="-1300" y="-2180" as="targetPoint" />
          </mxGeometry>
        </mxCell>
        <mxCell id="kUKV6NQQhQ4EJnf8gUJz-186" value="" style="endArrow=open;endFill=1;endSize=12;html=1;rounded=0;fontSize=12;curved=1;strokeColor=#007FFF;entryX=0;entryY=0.5;entryDx=0;entryDy=0;" parent="1" edge="1" target="kUKV6NQQhQ4EJnf8gUJz-195">
          <mxGeometry width="160" relative="1" as="geometry">
            <mxPoint x="-1410" y="-2180" as="sourcePoint" />
            <mxPoint x="-1300" y="-1970" as="targetPoint" />
          </mxGeometry>
        </mxCell>
        <mxCell id="kUKV6NQQhQ4EJnf8gUJz-188" value="Accès à la&amp;nbsp; discussion instantannée" style="ellipse;whiteSpace=wrap;html=1;fontSize=16;fillColor=#e1d5e7;strokeColor=#9673a6;" parent="1" vertex="1">
          <mxGeometry x="-1300" y="-2330" width="140" height="70" as="geometry" />
        </mxCell>
        <mxCell id="kUKV6NQQhQ4EJnf8gUJz-189" value="Accès historique" style="ellipse;whiteSpace=wrap;html=1;fontSize=16;fillColor=#e1d5e7;strokeColor=#9673a6;" parent="1" vertex="1">
          <mxGeometry x="-1300" y="-2220" width="140" height="70" as="geometry" />
        </mxCell>
        <mxCell id="kUKV6NQQhQ4EJnf8gUJz-196" style="edgeStyle=none;curved=1;rounded=0;orthogonalLoop=1;jettySize=auto;html=1;fontSize=12;startSize=8;endSize=8;fillColor=#dae8fc;strokeColor=#007FFF;dashed=1;" parent="1" source="kUKV6NQQhQ4EJnf8gUJz-195" edge="1">
          <mxGeometry relative="1" as="geometry">
            <mxPoint x="-970" y="-2070" as="targetPoint" />
          </mxGeometry>
        </mxCell>
        <mxCell id="kUKV6NQQhQ4EJnf8gUJz-203" value="&lt;font color=&quot;#007fff&quot;&gt;Extend&lt;/font&gt;" style="edgeLabel;html=1;align=center;verticalAlign=middle;resizable=0;points=[];fontSize=16;" parent="kUKV6NQQhQ4EJnf8gUJz-196" vertex="1" connectable="0">
          <mxGeometry x="-0.0662" y="-6" relative="1" as="geometry">
            <mxPoint as="offset" />
          </mxGeometry>
        </mxCell>
        <mxCell id="kUKV6NQQhQ4EJnf8gUJz-197" style="edgeStyle=none;curved=1;rounded=0;orthogonalLoop=1;jettySize=auto;html=1;fontSize=12;startSize=8;endSize=8;fillColor=#dae8fc;strokeColor=#007FFF;dashed=1;" parent="1" source="kUKV6NQQhQ4EJnf8gUJz-195" edge="1">
          <mxGeometry relative="1" as="geometry">
            <mxPoint x="-970" y="-1980" as="targetPoint" />
          </mxGeometry>
        </mxCell>
        <mxCell id="kUKV6NQQhQ4EJnf8gUJz-204" value="&lt;font color=&quot;#007fff&quot;&gt;Extend&lt;/font&gt;" style="edgeLabel;html=1;align=center;verticalAlign=middle;resizable=0;points=[];fontSize=16;" parent="kUKV6NQQhQ4EJnf8gUJz-197" vertex="1" connectable="0">
          <mxGeometry x="0.1479" y="-4" relative="1" as="geometry">
            <mxPoint x="1" as="offset" />
          </mxGeometry>
        </mxCell>
        <mxCell id="kUKV6NQQhQ4EJnf8gUJz-195" value="Accès liste contact" style="ellipse;whiteSpace=wrap;html=1;fontSize=16;fillColor=#e1d5e7;strokeColor=#9673a6;" parent="1" vertex="1">
          <mxGeometry x="-1300" y="-2100" width="140" height="70" as="geometry" />
        </mxCell>
        <mxCell id="kUKV6NQQhQ4EJnf8gUJz-198" value="Création nouveau contact" style="ellipse;whiteSpace=wrap;html=1;fontSize=16;fillColor=#e1d5e7;strokeColor=#9673a6;" parent="1" vertex="1">
          <mxGeometry x="-970" y="-2100" width="140" height="70" as="geometry" />
        </mxCell>
        <mxCell id="kUKV6NQQhQ4EJnf8gUJz-199" value="Suppression contact" style="ellipse;whiteSpace=wrap;html=1;fontSize=16;fillColor=#e1d5e7;strokeColor=#9673a6;" parent="1" vertex="1">
          <mxGeometry x="-970" y="-2010" width="140" height="70" as="geometry" />
        </mxCell>
        <mxCell id="kUKV6NQQhQ4EJnf8gUJz-221" value="" style="endArrow=open;endFill=1;endSize=12;html=1;rounded=0;fontSize=12;curved=1;fillColor=#dae8fc;strokeColor=#007FFF;" parent="1" edge="1">
          <mxGeometry width="160" relative="1" as="geometry">
            <mxPoint x="-320" y="-2750" as="sourcePoint" />
            <mxPoint x="-220" y="-2890" as="targetPoint" />
          </mxGeometry>
        </mxCell>
        <mxCell id="kUKV6NQQhQ4EJnf8gUJz-222" value="" style="endArrow=open;endFill=1;endSize=12;html=1;rounded=0;fontSize=12;curved=1;fillColor=#dae8fc;strokeColor=#007FFF;entryX=0;entryY=0.5;entryDx=0;entryDy=0;" parent="1" edge="1" target="kUKV6NQQhQ4EJnf8gUJz-86">
          <mxGeometry width="160" relative="1" as="geometry">
            <mxPoint x="-1410" y="-2650" as="sourcePoint" />
            <mxPoint x="-1350" y="-2445.5" as="targetPoint" />
          </mxGeometry>
        </mxCell>
        <mxCell id="kUKV6NQQhQ4EJnf8gUJz-223" value="" style="endArrow=open;endFill=1;endSize=12;html=1;rounded=0;fontSize=12;curved=1;fillColor=#dae8fc;strokeColor=#007FFF;" parent="1" edge="1">
          <mxGeometry width="160" relative="1" as="geometry">
            <mxPoint x="-1410" y="-2650" as="sourcePoint" />
            <mxPoint x="-1350" y="-2650" as="targetPoint" />
          </mxGeometry>
        </mxCell>
        <mxCell id="kUKV6NQQhQ4EJnf8gUJz-242" style="edgeStyle=none;curved=1;rounded=0;orthogonalLoop=1;jettySize=auto;html=1;exitX=1;exitY=0.5;exitDx=0;exitDy=0;fontSize=12;startSize=8;endSize=8;dashed=1;fillColor=#dae8fc;strokeColor=#007FFF;entryX=0.012;entryY=0.366;entryDx=0;entryDy=0;entryPerimeter=0;" parent="1" source="kUKV6NQQhQ4EJnf8gUJz-225" target="kUKV6NQQhQ4EJnf8gUJz-246" edge="1">
          <mxGeometry relative="1" as="geometry">
            <mxPoint x="-798.04" y="-2873.75" as="targetPoint" />
          </mxGeometry>
        </mxCell>
        <mxCell id="kUKV6NQQhQ4EJnf8gUJz-245" value="&lt;font color=&quot;#007fff&quot;&gt;Include&lt;/font&gt;" style="edgeLabel;html=1;align=center;verticalAlign=middle;resizable=0;points=[];fontSize=16;" parent="kUKV6NQQhQ4EJnf8gUJz-242" vertex="1" connectable="0">
          <mxGeometry x="-0.1225" relative="1" as="geometry">
            <mxPoint x="1" as="offset" />
          </mxGeometry>
        </mxCell>
        <mxCell id="kUKV6NQQhQ4EJnf8gUJz-255" style="edgeStyle=none;curved=0;rounded=0;orthogonalLoop=1;jettySize=auto;html=1;fontSize=12;startSize=8;endSize=8;entryX=0.5;entryY=0;entryDx=0;entryDy=0;exitX=-0.021;exitY=0.41;exitDx=0;exitDy=0;exitPerimeter=0;fillColor=#f8cecc;strokeColor=#C91616;dashed=1;" parent="1" source="kUKV6NQQhQ4EJnf8gUJz-225" edge="1">
          <mxGeometry relative="1" as="geometry">
            <mxPoint x="-1280" y="-2840" as="targetPoint" />
            <mxPoint x="-1129.72" y="-2879.48" as="sourcePoint" />
            <Array as="points">
              <mxPoint x="-1280" y="-2880" />
            </Array>
          </mxGeometry>
        </mxCell>
        <mxCell id="kUKV6NQQhQ4EJnf8gUJz-256" value="&lt;font color=&quot;#c91616&quot;&gt;Extend&lt;/font&gt;" style="edgeLabel;html=1;align=center;verticalAlign=middle;resizable=0;points=[];fontSize=16;" parent="kUKV6NQQhQ4EJnf8gUJz-255" vertex="1" connectable="0">
          <mxGeometry x="-0.0972" y="1" relative="1" as="geometry">
            <mxPoint x="6" y="-1" as="offset" />
          </mxGeometry>
        </mxCell>
        <mxCell id="kUKV6NQQhQ4EJnf8gUJz-225" value="Vérification d&#39;identité" style="ellipse;whiteSpace=wrap;html=1;fontSize=16;fillColor=#e1d5e7;strokeColor=#9673a6;" parent="1" vertex="1">
          <mxGeometry x="-1120" y="-2910" width="140" height="70" as="geometry" />
        </mxCell>
        <mxCell id="kUKV6NQQhQ4EJnf8gUJz-241" style="edgeStyle=none;curved=1;rounded=0;orthogonalLoop=1;jettySize=auto;html=1;fontSize=12;startSize=8;endSize=8;dashed=1;fillColor=#dae8fc;strokeColor=#007FFF;entryX=-0.004;entryY=0.429;entryDx=0;entryDy=0;entryPerimeter=0;" parent="1" source="kUKV6NQQhQ4EJnf8gUJz-228" target="kUKV6NQQhQ4EJnf8gUJz-246" edge="1">
          <mxGeometry relative="1" as="geometry">
            <mxPoint x="-800" y="-2865" as="targetPoint" />
          </mxGeometry>
        </mxCell>
        <mxCell id="kUKV6NQQhQ4EJnf8gUJz-244" value="&lt;font color=&quot;#007fff&quot;&gt;Include&lt;/font&gt;" style="edgeLabel;html=1;align=center;verticalAlign=middle;resizable=0;points=[];fontSize=16;" parent="kUKV6NQQhQ4EJnf8gUJz-241" vertex="1" connectable="0">
          <mxGeometry x="0.0506" y="2" relative="1" as="geometry">
            <mxPoint as="offset" />
          </mxGeometry>
        </mxCell>
        <mxCell id="kUKV6NQQhQ4EJnf8gUJz-251" style="edgeStyle=none;curved=0;rounded=0;orthogonalLoop=1;jettySize=auto;html=1;fontSize=12;startSize=8;endSize=8;entryX=0.443;entryY=0.971;entryDx=0;entryDy=0;entryPerimeter=0;fillColor=#f8cecc;strokeColor=#C91616;dashed=1;" parent="1" source="kUKV6NQQhQ4EJnf8gUJz-228" target="kUKV6NQQhQ4EJnf8gUJz-39" edge="1">
          <mxGeometry relative="1" as="geometry">
            <mxPoint x="-1280" y="-2725" as="targetPoint" />
            <Array as="points">
              <mxPoint x="-1280" y="-2725" />
            </Array>
          </mxGeometry>
        </mxCell>
        <mxCell id="kUKV6NQQhQ4EJnf8gUJz-252" value="&lt;font color=&quot;#c91616&quot;&gt;Extend&lt;/font&gt;" style="edgeLabel;html=1;align=center;verticalAlign=middle;resizable=0;points=[];fontSize=16;" parent="kUKV6NQQhQ4EJnf8gUJz-251" vertex="1" connectable="0">
          <mxGeometry x="0.0528" relative="1" as="geometry">
            <mxPoint as="offset" />
          </mxGeometry>
        </mxCell>
        <mxCell id="kUKV6NQQhQ4EJnf8gUJz-228" value="Authentification" style="ellipse;whiteSpace=wrap;html=1;fontSize=16;fillColor=#e1d5e7;strokeColor=#9673a6;" parent="1" vertex="1">
          <mxGeometry x="-1120" y="-2760" width="140" height="70" as="geometry" />
        </mxCell>
        <mxCell id="kUKV6NQQhQ4EJnf8gUJz-246" value="Accès au dashboard" style="ellipse;whiteSpace=wrap;html=1;fontSize=16;fillColor=#e1d5e7;strokeColor=#9673a6;" parent="1" vertex="1">
          <mxGeometry x="-800" y="-2900" width="140" height="70" as="geometry" />
        </mxCell>
        <mxCell id="kUKV6NQQhQ4EJnf8gUJz-278" value="Application Learn@Home Page de calendrier" style="text;strokeColor=default;fillColor=#FF6666;align=center;verticalAlign=top;rounded=0;fontSize=18;labelBackgroundColor=none;labelBorderColor=none;spacingTop=0;whiteSpace=wrap;html=1;fontFamily=Times New Roman;spacing=0;spacingRight=2;fontColor=#FFFFFF;" parent="1" vertex="1">
          <mxGeometry x="-560" y="-2400" width="880" height="30" as="geometry" />
        </mxCell>
        <mxCell id="kUKV6NQQhQ4EJnf8gUJz-279" value="Utilisateur&lt;br&gt;" style="shape=umlActor;verticalLabelPosition=bottom;verticalAlign=top;html=1;fontSize=16;fillColor=#fff2cc;strokeColor=#d6b656;" parent="1" vertex="1">
          <mxGeometry x="-530" y="-2250" width="30" height="60" as="geometry" />
        </mxCell>
        <mxCell id="kUKV6NQQhQ4EJnf8gUJz-283" value="" style="endArrow=open;endFill=1;endSize=12;html=1;rounded=0;fontSize=12;curved=1;strokeColor=#007FFF;entryX=0;entryY=0.5;entryDx=0;entryDy=0;" parent="1" edge="1" target="kUKV6NQQhQ4EJnf8gUJz-286">
          <mxGeometry width="160" relative="1" as="geometry">
            <mxPoint x="-450" y="-2190" as="sourcePoint" />
            <mxPoint x="-390" y="-2320" as="targetPoint" />
          </mxGeometry>
        </mxCell>
        <mxCell id="kUKV6NQQhQ4EJnf8gUJz-284" value="" style="endArrow=open;endFill=1;endSize=12;html=1;rounded=0;fontSize=12;curved=1;strokeColor=#007FFF;" parent="1" edge="1">
          <mxGeometry width="160" relative="1" as="geometry">
            <mxPoint x="-450" y="-2190" as="sourcePoint" />
            <mxPoint x="-390" y="-2190" as="targetPoint" />
          </mxGeometry>
        </mxCell>
        <mxCell id="kUKV6NQQhQ4EJnf8gUJz-286" value="Navigation dans le calendrier" style="ellipse;whiteSpace=wrap;html=1;fontSize=16;fillColor=#e1d5e7;strokeColor=#9673a6;" parent="1" vertex="1">
          <mxGeometry x="-390" y="-2320" width="140" height="70" as="geometry" />
        </mxCell>
        <mxCell id="kUKV6NQQhQ4EJnf8gUJz-287" value="Création d&#39;un nouvel event" style="ellipse;whiteSpace=wrap;html=1;fontSize=16;fillColor=#e1d5e7;strokeColor=#9673a6;" parent="1" vertex="1">
          <mxGeometry x="-390" y="-2220" width="140" height="70" as="geometry" />
        </mxCell>
        <mxCell id="kUKV6NQQhQ4EJnf8gUJz-288" value="" style="endArrow=open;endFill=1;endSize=12;html=1;rounded=0;fontSize=12;curved=1;strokeColor=#007FFF;" parent="1" edge="1">
          <mxGeometry width="160" relative="1" as="geometry">
            <mxPoint x="-450" y="-2190" as="sourcePoint" />
            <mxPoint x="-390" y="-2070" as="targetPoint" />
          </mxGeometry>
        </mxCell>
        <mxCell id="kUKV6NQQhQ4EJnf8gUJz-289" value="" style="endArrow=open;endFill=1;endSize=12;html=1;rounded=0;fontSize=12;curved=1;strokeColor=#007FFF;" parent="1" edge="1">
          <mxGeometry width="160" relative="1" as="geometry">
            <mxPoint x="-450" y="-2190" as="sourcePoint" />
            <mxPoint x="-390" y="-1960" as="targetPoint" />
          </mxGeometry>
        </mxCell>
        <mxCell id="kUKV6NQQhQ4EJnf8gUJz-290" value="Modification d&#39;un event existant" style="ellipse;whiteSpace=wrap;html=1;fontSize=16;fillColor=#e1d5e7;strokeColor=#9673a6;" parent="1" vertex="1">
          <mxGeometry x="-390" y="-2100" width="140" height="70" as="geometry" />
        </mxCell>
        <mxCell id="kUKV6NQQhQ4EJnf8gUJz-291" value="Suppression d&#39;un event existant" style="ellipse;whiteSpace=wrap;html=1;fontSize=16;fillColor=#e1d5e7;strokeColor=#9673a6;" parent="1" vertex="1">
          <mxGeometry x="-390" y="-1990" width="140" height="70" as="geometry" />
        </mxCell>
        <mxCell id="kUKV6NQQhQ4EJnf8gUJz-323" value="Application Learn@Home Page de gestion des tâches" style="text;strokeColor=default;fillColor=#FF6666;align=center;verticalAlign=top;rounded=0;fontSize=18;labelBackgroundColor=none;labelBorderColor=none;spacingTop=0;whiteSpace=wrap;html=1;fontFamily=Times New Roman;spacing=0;spacingRight=2;fontColor=#FFFFFF;" parent="1" vertex="1">
          <mxGeometry x="-1480" y="-1880" width="880" height="30" as="geometry" />
        </mxCell>
        <mxCell id="kUKV6NQQhQ4EJnf8gUJz-324" value="Utilisateur /elève" style="shape=umlActor;verticalLabelPosition=bottom;verticalAlign=top;html=1;fontSize=16;fillColor=#fff2cc;strokeColor=#d6b656;" parent="1" vertex="1">
          <mxGeometry x="-1480" y="-1560" width="30" height="60" as="geometry" />
        </mxCell>
        <mxCell id="kUKV6NQQhQ4EJnf8gUJz-327" value="" style="endArrow=open;endFill=1;endSize=12;html=1;rounded=0;fontSize=12;curved=1;strokeColor=#007FFF;" parent="1" edge="1">
          <mxGeometry width="160" relative="1" as="geometry">
            <mxPoint x="-1430" y="-1540" as="sourcePoint" />
            <mxPoint x="-1340" y="-1770" as="targetPoint" />
          </mxGeometry>
        </mxCell>
        <mxCell id="kUKV6NQQhQ4EJnf8gUJz-328" value="" style="endArrow=open;endFill=1;endSize=12;html=1;rounded=0;fontSize=12;curved=1;strokeColor=#007FFF;" parent="1" edge="1">
          <mxGeometry width="160" relative="1" as="geometry">
            <mxPoint x="-1430" y="-1540" as="sourcePoint" />
            <mxPoint x="-1340" y="-1690" as="targetPoint" />
          </mxGeometry>
        </mxCell>
        <mxCell id="kUKV6NQQhQ4EJnf8gUJz-329" value="" style="endArrow=open;endFill=1;endSize=12;html=1;rounded=0;fontSize=12;curved=1;strokeColor=#007FFF;" parent="1" edge="1">
          <mxGeometry width="160" relative="1" as="geometry">
            <mxPoint x="-1430" y="-1540" as="sourcePoint" />
            <mxPoint x="-1340" y="-1585.3400000000001" as="targetPoint" />
          </mxGeometry>
        </mxCell>
        <mxCell id="kUKV6NQQhQ4EJnf8gUJz-330" value="" style="endArrow=open;endFill=1;endSize=12;html=1;rounded=0;fontSize=12;curved=1;strokeColor=#007FFF;" parent="1" edge="1">
          <mxGeometry width="160" relative="1" as="geometry">
            <mxPoint x="-1440" y="-1300" as="sourcePoint" />
            <mxPoint x="-1340" y="-1330" as="targetPoint" />
          </mxGeometry>
        </mxCell>
        <mxCell id="kUKV6NQQhQ4EJnf8gUJz-333" value="Utilisateur /&lt;br&gt;&amp;nbsp;Bénévole" style="shape=umlActor;verticalLabelPosition=bottom;verticalAlign=top;html=1;fontSize=16;fillColor=#fff2cc;strokeColor=#d6b656;" parent="1" vertex="1">
          <mxGeometry x="-1480" y="-1330" width="30" height="60" as="geometry" />
        </mxCell>
        <mxCell id="kUKV6NQQhQ4EJnf8gUJz-336" value="Création de tâche pour soi-même" style="ellipse;whiteSpace=wrap;html=1;fontSize=16;fillColor=#e1d5e7;strokeColor=#9673a6;" parent="1" vertex="1">
          <mxGeometry x="-1340" y="-1810" width="140" height="70" as="geometry" />
        </mxCell>
        <mxCell id="mY0RuLTUbNtjpvg7fHiF-1" style="edgeStyle=none;curved=1;rounded=0;orthogonalLoop=1;jettySize=auto;html=1;exitX=1;exitY=0;exitDx=0;exitDy=0;entryX=1;entryY=0.5;entryDx=0;entryDy=0;fontSize=12;startSize=8;endSize=8;fillColor=#dae8fc;strokeColor=#007FFF;" parent="1" source="kUKV6NQQhQ4EJnf8gUJz-337" target="kUKV6NQQhQ4EJnf8gUJz-338" edge="1">
          <mxGeometry relative="1" as="geometry">
            <Array as="points">
              <mxPoint x="-1110" y="-1540" />
            </Array>
          </mxGeometry>
        </mxCell>
        <mxCell id="mY0RuLTUbNtjpvg7fHiF-2" value="&lt;font color=&quot;#007fff&quot;&gt;Extend&lt;/font&gt;" style="edgeLabel;html=1;align=center;verticalAlign=middle;resizable=0;points=[];fontSize=16;" parent="mY0RuLTUbNtjpvg7fHiF-1" vertex="1" connectable="0">
          <mxGeometry x="0.4017" y="20" relative="1" as="geometry">
            <mxPoint as="offset" />
          </mxGeometry>
        </mxCell>
        <mxCell id="kUKV6NQQhQ4EJnf8gUJz-337" value="Création de tâche pour un autre utilisateur" style="ellipse;whiteSpace=wrap;html=1;fontSize=16;fillColor=#e1d5e7;strokeColor=#9673a6;" parent="1" vertex="1">
          <mxGeometry x="-1340" y="-1370" width="140" height="80" as="geometry" />
        </mxCell>
        <mxCell id="kUKV6NQQhQ4EJnf8gUJz-338" value="Consultation de tâches" style="ellipse;whiteSpace=wrap;html=1;fontSize=16;fillColor=#e1d5e7;strokeColor=#9673a6;" parent="1" vertex="1">
          <mxGeometry x="-1340" y="-1720" width="140" height="70" as="geometry" />
        </mxCell>
        <mxCell id="kUKV6NQQhQ4EJnf8gUJz-340" value="Modification de tâches" style="ellipse;whiteSpace=wrap;html=1;fontSize=16;fillColor=#e1d5e7;strokeColor=#9673a6;" parent="1" vertex="1">
          <mxGeometry x="-1340" y="-1620" width="140" height="70" as="geometry" />
        </mxCell>
        <mxCell id="kUKV6NQQhQ4EJnf8gUJz-342" value="" style="endArrow=open;endFill=1;endSize=12;html=1;rounded=0;fontSize=12;curved=1;strokeColor=#007FFF;entryX=0;entryY=0.5;entryDx=0;entryDy=0;" parent="1" edge="1" target="kUKV6NQQhQ4EJnf8gUJz-344">
          <mxGeometry width="160" relative="1" as="geometry">
            <mxPoint x="-1430" y="-1540" as="sourcePoint" />
            <mxPoint x="-1340" y="-1490" as="targetPoint" />
          </mxGeometry>
        </mxCell>
        <mxCell id="kUKV6NQQhQ4EJnf8gUJz-344" value="Suppression de tâches" style="ellipse;whiteSpace=wrap;html=1;fontSize=16;fillColor=#e1d5e7;strokeColor=#9673a6;" parent="1" vertex="1">
          <mxGeometry x="-1340" y="-1520" width="140" height="70" as="geometry" />
        </mxCell>
        <mxCell id="a3xLqp_mZcLnd-MGu28U-4" value="" style="endArrow=open;endFill=1;endSize=12;html=1;rounded=0;fontSize=12;curved=1;strokeColor=#007FFF;" edge="1" parent="1">
          <mxGeometry width="160" relative="1" as="geometry">
            <mxPoint x="-1440" y="-1305" as="sourcePoint" />
            <mxPoint x="-1340" y="-1690" as="targetPoint" />
          </mxGeometry>
        </mxCell>
        <mxCell id="a3xLqp_mZcLnd-MGu28U-5" value="" style="endArrow=open;endFill=1;endSize=12;html=1;rounded=0;fontSize=12;curved=1;strokeColor=#007FFF;entryX=0;entryY=0.5;entryDx=0;entryDy=0;" edge="1" parent="1" target="kUKV6NQQhQ4EJnf8gUJz-344">
          <mxGeometry width="160" relative="1" as="geometry">
            <mxPoint x="-1440" y="-1300" as="sourcePoint" />
            <mxPoint x="-1340" y="-1365" as="targetPoint" />
          </mxGeometry>
        </mxCell>
        <mxCell id="a3xLqp_mZcLnd-MGu28U-6" value="" style="endArrow=open;endFill=1;endSize=12;html=1;rounded=0;fontSize=12;curved=1;strokeColor=#007FFF;entryX=0;entryY=0.5;entryDx=0;entryDy=0;" edge="1" parent="1" target="kUKV6NQQhQ4EJnf8gUJz-340">
          <mxGeometry width="160" relative="1" as="geometry">
            <mxPoint x="-1440" y="-1300" as="sourcePoint" />
            <mxPoint x="-1330" y="-1320" as="targetPoint" />
          </mxGeometry>
        </mxCell>
      </root>
    </mxGraphModel>
  </diagram>
</mxfile>
